<svg xmlns="http://www.w3.org/2000/svg" xmlns:xlink="http://www.w3.org/1999/xlink" width="20" height="20" viewBox="0 0 20 20">
  <defs>
    <clipPath id="clip-path">
      <rect id="Rectangle_4132" data-name="Rectangle 4132" width="20" height="20" transform="translate(-9735 14018)" fill="#fff" stroke="#e0e0e0" stroke-width="1"/>
    </clipPath>
  </defs>
  <g id="Group_11393" data-name="Group 11393" transform="translate(-54 -177)">
    <g id="Mask_Group_306" data-name="Mask Group 306" transform="translate(9789 -13841)" clip-path="url(#clip-path)">
      <g id="logo--twitter" transform="translate(-9735 14018)">
        <path id="Path_11001" data-name="Path 11001" d="M7.45,15.588a7.975,7.975,0,0,0,8.025-8.025c0-.125,0-.244,0-.369a5.875,5.875,0,0,0,1.4-1.456,5.819,5.819,0,0,1-1.619.444,2.85,2.85,0,0,0,1.25-1.563,5.556,5.556,0,0,1-1.787.688A2.825,2.825,0,0,0,9.906,7.875,7.994,7.994,0,0,1,4.094,4.931a2.819,2.819,0,0,0,.875,3.75,2.794,2.794,0,0,1-1.25-.35v.031a2.831,2.831,0,0,0,2.219,2.781,2.831,2.831,0,0,1-1.25.05A2.819,2.819,0,0,0,7.3,13.125a5.656,5.656,0,0,1-3.506,1.25,6.106,6.106,0,0,1-.669-.056,7.981,7.981,0,0,0,4.325,1.25" fill="#54acee"/>
        <rect id="_Transparent_Rectangle_" data-name="&lt;Transparent Rectangle&gt;" width="20" height="20" fill="none"/>
      </g>
    </g>
  </g>
</svg>
